<?xml version="1.0" encoding="utf-8"?>
<!-- Generator: Adobe Illustrator 19.2.1, SVG Export Plug-In . SVG Version: 6.00 Build 0)  -->
<svg version="1.1" id="Layer_1" xmlns="http://www.w3.org/2000/svg" xmlns:xlink="http://www.w3.org/1999/xlink" x="0px" y="0px"
	 viewBox="0 0 43.1 41.9" enable-background="new 0 0 43.1 41.9" xml:space="preserve">
<path id="bottom" fill="#E6D6C4" stroke="#FFFFFF" stroke-width="2" stroke-linecap="round" stroke-linejoin="round" stroke-miterlimit="10" d="
	M41.6,32.4c0,4.4-3.6,8-8,8h-24c-4.4,0-8-3.6-8-8v-23c0-4.4,3.6-8,8-8h24c4.4,0,8,3.6,8,8V32.4z"/>
<path id="top" fill-rule="evenodd" clip-rule="evenodd" fill="#926358" d="M21.6,1.4h12c0,0,8,1,8,8s0,7,0,7h-14c0,0-6.3-4.7-12,0
	h-14v-7c0,0,0-8,8-8H21.6z"/>
<g id="rainbow">
	<rect x="7.3" y="1.7" fill="#EEB938" width="1.9" height="13.7"/>
	<path fill="#EF3B3C" d="M5.4,15.4c0,0,0-12,0-12.8c0-0.9,0.9-0.9,1.9-0.9c0,0.6,0,13.7,0,13.7H5.4z"/>
	<polyline fill="#5AB277" points="11.1,15.4 9.2,15.4 9.2,1.7 11.1,1.7 	"/>
	<polyline fill="#517EC0" points="12.9,15.4 11.1,15.4 11.1,1.7 12.9,1.7 	"/>
</g>
<path fill-rule="evenodd" clip-rule="evenodd" fill="none" stroke="#FFFFFF" stroke-width="2" stroke-linejoin="round" stroke-miterlimit="10" d="
	M21.6,1.4h12c0,0,8,1,8,8s0,7,0,7h-14c0,0-6.3-4.7-12,0h-14v-7c0,0,0-8,8-8H21.6z"/>
<path id="flash" stroke="#FFFFFF" stroke-width="2" stroke-linecap="round" stroke-linejoin="round" stroke-miterlimit="10" d="
	M35.8,6.7H32c-0.7,0-1.3,0.6-1.3,1.3v3.9c0,0.7,0.6,1.3,1.3,1.3h3.9c0.7,0,1.3-0.6,1.3-1.3V8C37.1,7.3,36.5,6.7,35.8,6.7z"/>
<circle id="outer-lens" fill-rule="evenodd" clip-rule="evenodd" fill="#333333" stroke="#FFFFFF" stroke-width="2" stroke-linecap="round" stroke-linejoin="round" stroke-miterlimit="10" cx="21.6" cy="25.4" r="11"/>
<circle id="inner-lens" fill-rule="evenodd" clip-rule="evenodd" fill="#454545" stroke="#FFFFFF" stroke-width="2" stroke-linecap="round" stroke-linejoin="round" stroke-miterlimit="10" cx="21.6" cy="25.4" r="6"/>
</svg>
