<?xml version="1.0" encoding="utf-8"?>
<!-- Generator: Adobe Illustrator 19.2.1, SVG Export Plug-In . SVG Version: 6.00 Build 0)  -->
<svg version="1.1" id="Layer_1" xmlns="http://www.w3.org/2000/svg" xmlns:xlink="http://www.w3.org/1999/xlink" x="0px" y="0px"
	 viewBox="0 0 43.4 42.8" enable-background="new 0 0 43.4 42.8" xml:space="preserve">
<path id="in" fill-rule="evenodd" clip-rule="evenodd" fill="none" stroke="#010101" stroke-width="2" stroke-linecap="round" stroke-linejoin="round" stroke-miterlimit="10" d="
	M34.1,41.5V25.8c0-3.6-1.8-6-4.9-6c-2.4,0-4.4,1.6-5,3.2c-0.2,0.6-0.3,1.4-0.3,2.2v16.3h-8.1V22.3c0-3.5,0-6.5-0.1-9l7.4-0.1
	l0.4,4.1h0.2c1.1-1.8,3.9-4.5,8.6-4.5c5.7,0,9.8,3.8,9.8,12v16.7H34.1z M5.9,10C3.2,10,1.4,8,1.4,5.7c0-2.4,1.8-4.3,4.6-4.3
	c2.8,0,4.5,1.9,4.5,4.3C10.6,8,8.8,10,5.9,10z M9.7,41.3H1.6V13.1h8.1V41.3z"/>
</svg>
