<?xml version="1.0" encoding="utf-8"?>
<!-- Generator: Adobe Illustrator 19.2.1, SVG Export Plug-In . SVG Version: 6.00 Build 0)  -->
<svg version="1.1" id="Layer_1" xmlns="http://www.w3.org/2000/svg" xmlns:xlink="http://www.w3.org/1999/xlink" x="0px" y="0px"
	 viewBox="0 0 42.4 36.7" enable-background="new 0 0 42.4 36.7" xml:space="preserve">
<path id="vimeov" fill-rule="evenodd" clip-rule="evenodd" fill="none" stroke="#010101" stroke-width="2" stroke-linecap="round" stroke-linejoin="round" stroke-miterlimit="10" d="
	M1.7,10.6c0,0,6-6.3,9.7-8c0,0,6-3.8,7.5,6.4c0,0,1.6,13,4.1,13.9c0,0,2.3,1.2,6.5-9.3c0,0,1.3-5.1-5.4-3.1c0,0,2.1-9.4,11.1-9.2
	c0,0,9.2,0.2,4.4,12.9c0,0-9.7,19.5-20.1,20.9c0,0-4.2,0.8-7.4-12.2c0,0-1.5-6.4-3.8-11c0,0-1.2-2.7-4.5,0.9L1.7,10.6z"/>
</svg>
